<svg width="180" height="48" viewBox="0 0 180 48" fill="none" xmlns="http://www.w3.org/2000/svg">
  <path d="M24 4C12.9543 4 4 12.9543 4 24C4 35.0457 12.9543 44 24 44C35.0457 44 44 35.0457 44 24C44 12.9543 35.0457 4 24 4Z" fill="#1D4ED8"/>
  <path d="M24 8C15.1634 8 8 15.1634 8 24C8 32.8366 15.1634 40 24 40C32.8366 40 40 32.8366 40 24C40 15.1634 32.8366 8 24 8Z" fill="#1E40AF"/>
  <path d="M24 12C17.3726 12 12 17.3726 12 24C12 30.6274 17.3726 36 24 36C30.6274 36 36 30.6274 36 24C36 17.3726 30.6274 12 24 12Z" fill="#2563EB"/>
  <path d="M24 16C19.5817 16 16 19.5817 16 24C16 28.4183 19.5817 32 24 32C28.4183 32 32 28.4183 32 24C32 19.5817 28.4183 16 24 16Z" fill="#3B82F6"/>
  <path d="M24 20C21.7909 20 20 21.7909 20 24C20 26.2091 21.7909 28 24 28C26.2091 28 28 26.2091 28 24C28 21.7909 26.2091 20 24 20Z" fill="#60A5FA"/>
  <path d="M24 22C22.8954 22 22 22.8954 22 24C22 25.1046 22.8954 26 24 26C25.1046 26 26 25.1046 26 24C26 22.8954 25.1046 22 24 22Z" fill="#93C5FD"/>
  <path d="M56 16H60.5L68.5 32H63.5L62 28.5H54.5L53 32H48L56 16ZM60.5 25L58.25 20L56 25H60.5Z" fill="white"/>
  <path d="M70 16H75V32H70V16Z" fill="white"/>
  <path d="M77 16H82V27.5L89 16H94V32H89V20.5L82 32H77V16Z" fill="white"/>
  <path d="M96 16H101V27.5L108 16H113V32H108V20.5L101 32H96V16Z" fill="white"/>
  <path d="M115 16H120V32H115V16Z" fill="white"/>
  <path d="M122 16H127V20H134V16H139V32H134V24H127V32H122V16Z" fill="white"/>
</svg>
